Coordinates
version=1
nRows=28
nColumns=38
inDegrees=no

Units are S.I. units (second, meters, Newtons, ...)
If the header above contains a line with 'inDegrees', this indicates whether rotational values are in degrees (yes) or radians (no).

endheader
time	pelvis_tilt	pelvis_list	pelvis_rotation	pelvis_tx	pelvis_ty	pelvis_tz	hip_flexion_r	hip_adduction_r	hip_rotation_r	knee_angle_r	ankle_angle_r	subtalar_angle_r	mtp_angle_r	hip_flexion_l	hip_adduction_l	hip_rotation_l	knee_angle_l	ankle_angle_l	subtalar_angle_l	mtp_angle_l	lumbar_extension	lumbar_bending	lumbar_rotation	arm_flex_r	arm_add_r	arm_rot_r	elbow_flex_r	pro_sup_r	wrist_flex_r	wrist_dev_r	arm_flex_l	arm_add_l	arm_rot_l	elbow_flex_l	pro_sup_l	wrist_flex_l	wrist_dev_l
48.14	-1.65763	1.54988	-2.73659	0.565251	0.21011	0.939366	-0.0529	-0.0268593	-0.217547	0	-0.04011	0	0	-0.0248082	-0.013367	-0.141164	0	-0.0638346	0	0	-0.267333	0.0711837	-0.120643	0.101242	-0.23434	0.383696	0.33392	0.875246	0	0	0.028572	-0.342604	0.414816	0.809873	1.10025	0	0
48.15	-1.52963	1.55026	-2.86252	0.565141	0.210379	0.939175	-0.0524653	-0.0271714	-0.21845	0	-0.0426031	0	0	-0.0236736	-0.0130298	-0.13992	0	-0.0668354	0	0	-0.258258	0.0685234	-0.123445	0.0944629	-0.233285	0.384432	0.334507	0.874364	0	0	0.0282223	-0.343066	0.412506	0.812595	1.10003	0	0
48.16	-1.42115	1.55033	-2.96848	0.564921	0.210646	0.938968	-0.0525118	-0.0273683	-0.219566	0	-0.0446923	0	0	-0.022814	-0.0128343	-0.138181	0	-0.0692092	0	0	-0.249986	0.0660177	-0.127004	0.0883335	-0.232451	0.385802	0.335201	0.873907	0	0	0.0274526	-0.343456	0.408712	0.81553	1.09975	0	0
48.17	-1.32581	1.55003	-3.06091	0.564744	0.210905	0.938757	-0.0528249	-0.0277981	-0.220549	0	-0.0459922	0	0	-0.0221172	-0.0125017	-0.135986	0	-0.071204	0	0	-0.242235	0.0634013	-0.131394	0.0824711	-0.231652	0.386408	0.336338	0.873746	0	0	0.0261017	-0.343762	0.403155	0.818547	1.09937	0	0
48.18	-1.25901	1.5496	-3.12448	0.564443	0.21114	0.938603	-0.0537927	-0.0281467	-0.222019	0	-0.0465921	0	0	-0.0218392	-0.0122395	-0.133581	0	-0.0729382	0	0	-0.235341	0.0609609	-0.136419	0.0765406	-0.230944	0.385108	0.338401	0.874224	0	0	0.0244735	-0.343765	0.396097	0.821526	1.0986	0	0
48.19	-1.18409	1.54932	3.08696	0.564239	0.211366	0.938465	-0.0544788	-0.0281339	-0.224825	0	-0.0462442	0	0	-0.0211591	-0.0122981	-0.131221	0	-0.0743241	0	0	-0.229734	0.0585068	-0.137745	0.0704679	-0.217959	0.279509	0.327962	1.02693	0	0	0.026414	-0.343598	0.393437	0.824001	1.08479	0	0
48.2	-1.10441	1.54856	3.00949	0.564125	0.211492	0.938271	-0.0539442	-0.0287304	-0.226136	0	-0.0451449	0	0	-0.0200544	-0.0120344	-0.130101	0	-0.0750252	0	0	-0.223796	0.0559158	-0.140609	0.0643026	-0.215074	0.254711	0.329859	1.045	0	0	0.0267085	-0.343474	0.388993	0.824606	1.0794	0	0
48.21	-0.982593	1.5471	2.88937	0.56402	0.211569	0.937945	-0.0510519	-0.0298731	-0.226763	0	-0.0436087	0	0	-0.0173651	-0.0114582	-0.129349	0	-0.0754534	0	0	-0.21705	0.0529346	-0.142147	0.0583502	-0.210525	0.216811	0.33049	1.05754	0	0	0.0281809	-0.343614	0.387381	0.82449	1.07225	0	0
48.22	-0.609828	1.5413	2.51901	0.563877	0.211574	0.936788	-0.0378983	-0.031	-0.234843	0	-0.03592	0	0	-0.00476497	-0.0105984	-0.131994	0	-0.0693863	0	0	-0.201623	0.0498618	-0.141701	0.0500082	-0.20216	0.144456	0.332008	1.05247	0	0	0.0319378	-0.344893	0.395145	0.823213	1.0643	0	0
48.23	-0.859773	1.54458	2.76871	0.56396	0.211756	0.937532	-0.0469747	-0.03202	-0.225141	0	-0.0418915	0	0	-0.0142214	-0.0105572	-0.12848	0	-0.0765481	0	0	-0.206737	0.0477785	-0.148154	0.0495474	-0.210603	0.21295	0.335335	1.06001	0	0	0.0266527	-0.342293	0.372516	0.826124	1.06923	0	0
48.24	-0.849364	1.54443	2.7591	0.563813	0.211858	0.937489	-0.046798	-0.0321647	-0.224465	0	-0.0412669	0	0	-0.014178	-0.0107724	-0.127805	0	-0.0771081	0	0	-0.202661	0.0464353	-0.157128	0.0455716	-0.226124	0.324315	0.354772	0.950013	0	0	0.018429	-0.338008	0.344051	0.827079	1.09106	0	0
48.25	-0.799101	1.54356	2.70968	0.563777	0.212077	0.937363	-0.0450092	-0.0323462	-0.224938	0	-0.0397337	0	0	-0.0125937	-0.0107608	-0.126996	0	-0.0772528	0	0	-0.199064	0.0445543	-0.158625	0.040033	-0.226682	0.317087	0.359558	0.953165	0	0	0.0186755	-0.337047	0.338102	0.827036	1.08785	0	0
48.26	-0.760163	1.54275	2.6711	0.563747	0.212299	0.937285	-0.0432758	-0.032505	-0.225247	0	-0.0382877	0	0	-0.0112818	-0.0106884	-0.126606	0	-0.0770561	0	0	-0.195553	0.0425608	-0.160218	0.0353341	-0.227192	0.312541	0.363125	0.954939	0	0	0.0186096	-0.336215	0.332883	0.826291	1.08522	0	0
48.27	-0.738137	1.54216	2.64905	0.563798	0.212579	0.937288	-0.0421971	-0.0325087	-0.225565	0	-0.0370038	0	0	-0.0105073	-0.0106494	-0.126709	0	-0.0766101	0	0	-0.192697	0.0406106	-0.161008	0.0308296	-0.227594	0.310383	0.365594	0.9562	0	0	0.0192794	-0.335515	0.32958	0.824305	1.08344	0	0
48.28	-0.734088	1.5422	2.64499	0.563829	0.212859	0.937404	-0.0423735	-0.0319361	-0.22621	0	-0.0360298	0	0	-0.0105668	-0.0109879	-0.126838	0	-0.0762398	0	0	-0.190711	0.0390892	-0.161739	0.0271613	-0.227653	0.309757	0.366316	0.956852	0	0	0.0201265	-0.335064	0.327787	0.821628	1.08256	0	0
48.29	-0.730092	1.54213	2.64089	0.563913	0.213209	0.937493	-0.0423196	-0.0314964	-0.226563	0	-0.0352563	0	0	-0.0105708	-0.0111761	-0.126929	0	-0.0759142	0	0	-0.188673	0.0374093	-0.162468	0.0242187	-0.227456	0.310046	0.365733	0.957334	0	0	0.020771	-0.334967	0.326989	0.818939	1.08203	0	0
48.3	-0.717679	1.54177	2.62814	0.563996	0.213583	0.937508	-0.0416502	-0.0312904	-0.226511	0	-0.0344509	0	0	-0.0101909	-0.0112352	-0.1273	0	-0.0753239	0	0	-0.186268	0.0354702	-0.162909	0.0216645	-0.227123	0.310198	0.364563	0.958065	0	0	0.0211689	-0.335178	0.326489	0.817311	1.08151	0	0
48.31	-0.699653	1.54117	2.60945	0.564139	0.214008	0.93746	-0.0406579	-0.0312336	-0.225816	0	-0.0332933	0	0	-0.00954692	-0.0112228	-0.127961	0	-0.0745547	0	0	-0.183502	0.0332262	-0.162823	0.0191206	-0.226694	0.310114	0.363253	0.959001	0	0	0.0215856	-0.335682	0.327296	0.815342	1.08211	0	0
48.32	-0.688852	1.54082	2.59764	0.564301	0.214463	0.937436	-0.0401169	-0.0310431	-0.224689	0	-0.03221	0	0	-0.00921877	-0.0113257	-0.128759	0	-0.0736224	0	0	-0.181096	0.0310522	-0.162206	0.016452	-0.226305	0.310452	0.362256	0.960274	0	0	0.0222772	-0.336264	0.32951	0.812296	1.08384	0	0
48.33	-0.684993	1.54074	2.59293	0.564481	0.214973	0.937435	-0.0401916	-0.0306502	-0.223719	0	-0.0313422	0	0	-0.00921245	-0.0116507	-0.129145	0	-0.0724468	0	0	-0.178988	0.0289986	-0.161788	0.0134693	-0.225764	0.310947	0.361788	0.961347	0	0	0.0227242	-0.337114	0.332528	0.808844	1.08588	0	0
48.34	-0.686973	1.54096	2.59417	0.564694	0.215551	0.937445	-0.0407272	-0.0301066	-0.222792	0	-0.0308568	0	0	-0.00952645	-0.0122079	-0.129047	0	-0.0712072	0	0	-0.177161	0.0270671	-0.1615	0.0103174	-0.225051	0.311468	0.361464	0.961963	0	0	0.0228541	-0.338059	0.335104	0.806289	1.08753	0	0
48.35	-0.689032	1.54126	2.59511	0.564924	0.216115	0.937425	-0.0409807	-0.0296369	-0.221394	0	-0.0301507	0	0	-0.00992289	-0.012875	-0.129017	0	-0.0697678	0	0	-0.174832	0.0249114	-0.162526	0.00913401	-0.222452	0.305028	0.357557	0.976815	0	0	0.0211405	-0.339339	0.336	0.805628	1.08173	0	0
48.36	-0.688981	1.54084	2.59308	0.565298	0.216756	0.937316	-0.0401946	-0.0299965	-0.218662	0	-0.0291833	0	0	-0.00994089	-0.0129861	-0.129678	0	-0.0683217	0	0	-0.173327	0.0224624	-0.159243	0.00433617	-0.222005	0.304312	0.359529	0.974222	0	0	0.0228137	-0.340155	0.340784	0.802525	1.0828	0	0
48.37	-0.707758	1.5414	2.60979	0.565625	0.21739	0.93732	-0.0409667	-0.0296212	-0.216504	0	-0.0283814	0	0	-0.0111297	-0.0136651	-0.130557	0	-0.0669957	0	0	-0.172213	0.020415	-0.157581	0.00159832	-0.221213	0.304925	0.359685	0.971803	0	0	0.0229562	-0.341129	0.345189	0.798643	1.08487	0	0
48.38	-0.710319	1.54278	2.60995	0.566101	0.217671	0.937485	-0.0398244	-0.0280909	-0.212552	0	-0.0317175	0	0	-0.0124744	-0.0153189	-0.131659	0	-0.0659137	0	0	-0.171512	0.0195449	-0.155443	-0.000260436	-0.220581	0.306	0.359118	0.970055	0	0	0.0233763	-0.341243	0.348593	0.794198	1.08737	0	0
48.39	-0.776125	1.5437	2.67426	0.566284	0.218766	0.93749	-0.044954	-0.0275692	-0.213693	0	-0.0277894	0	0	-0.0152217	-0.0158026	-0.132592	0	-0.0644851	0	0	-0.171237	0.0171218	-0.154603	-0.00259884	-0.219265	0.307205	0.358548	0.969044	0	0	0.0222491	-0.342094	0.350614	0.791365	1.09	0	0
48.4	-0.795205	1.54501	2.69042	0.566683	0.219408	0.937599	-0.0443147	-0.0261811	-0.209251	0	-0.0313404	0	0	-0.0172459	-0.0172899	-0.134387	0	-0.0635038	0	0	-0.170116	0.0159127	-0.152299	-0.00451645	-0.218404	0.308265	0.357943	0.96846	0	0	0.0209985	-0.341742	0.351389	0.787728	1.09283	0	0
48.41	-0.821808	1.54581	2.71445	0.56746	0.219535	0.937709	-0.0457165	-0.0253385	-0.208023	0	-0.0311687	0	0	-0.0190279	-0.0180961	-0.136241	0	-0.0619446	0	0	-0.170092	0.0142224	-0.150597	-0.00581928	-0.216988	0.308879	0.357754	0.968156	0	0	0.0197934	-0.341811	0.351505	0.785061	1.0957	0	0
